<?xml version="1.0" encoding="UTF-8" standalone="no"?>
<!DOCTYPE svg PUBLIC "-//W3C//DTD SVG 1.1//EN"
 "http://www.w3.org/Graphics/SVG/1.1/DTD/svg11.dtd">
<!-- Generated by graphviz version 4.0.0 (0)
 -->
<!-- Pages: 1 -->
<svg width="585pt" height="438pt"
 viewBox="0.00 0.00 584.72 437.88" xmlns="http://www.w3.org/2000/svg" xmlns:xlink="http://www.w3.org/1999/xlink">
<g id="graph0" class="graph" transform="scale(1 1) rotate(0) translate(4 433.88)">
<polygon fill="white" stroke="transparent" points="-4,4 -4,-433.88 580.72,-433.88 580.72,4 -4,4"/>
<g id="clust1" class="cluster">
<title>cluster15</title>
<path fill="none" stroke="black" d="M20,-8C20,-8 138,-8 138,-8 144,-8 150,-14 150,-20 150,-20 150,-409.88 150,-409.88 150,-415.88 144,-421.88 138,-421.88 138,-421.88 20,-421.88 20,-421.88 14,-421.88 8,-415.88 8,-409.88 8,-409.88 8,-20 8,-20 8,-14 14,-8 20,-8"/>
<text text-anchor="middle" x="135" y="-15.8" font-family="Times New Roman,serif" font-size="14.00">15</text>
</g>
<!-- q_obs -->
<g id="node1" class="node">
<title>q_obs</title>
<path fill="lightgrey" stroke="black" d="M97,-92C97,-92 67,-92 67,-92 61,-92 55,-86 55,-80 55,-80 55,-51 55,-51 55,-45 61,-39 67,-39 67,-39 97,-39 97,-39 103,-39 109,-45 109,-51 109,-51 109,-80 109,-80 109,-86 103,-92 97,-92"/>
<text text-anchor="middle" x="82" y="-76.8" font-family="Times New Roman,serif" font-size="14.00">q_obs</text>
<text text-anchor="middle" x="82" y="-61.8" font-family="Times New Roman,serif" font-size="14.00">~</text>
<text text-anchor="middle" x="82" y="-46.8" font-family="Times New Roman,serif" font-size="14.00">Data</text>
</g>
<!-- q_likelihood -->
<g id="node2" class="node">
<title>q_likelihood</title>
<ellipse fill="lightgrey" stroke="black" cx="82" cy="-165.48" rx="60.21" ry="37.45"/>
<text text-anchor="middle" x="82" y="-176.78" font-family="Times New Roman,serif" font-size="14.00">q_likelihood</text>
<text text-anchor="middle" x="82" y="-161.78" font-family="Times New Roman,serif" font-size="14.00">~</text>
<text text-anchor="middle" x="82" y="-146.78" font-family="Times New Roman,serif" font-size="14.00">Gamma</text>
</g>
<!-- q_likelihood&#45;&gt;q_obs -->
<g id="edge1" class="edge">
<title>q_likelihood&#45;&gt;q_obs</title>
<path fill="none" stroke="black" d="M82,-127.99C82,-119.58 82,-110.63 82,-102.25"/>
<polygon fill="black" stroke="black" points="85.5,-102.01 82,-92.01 78.5,-102.01 85.5,-102.01"/>
</g>
<!-- theta -->
<g id="node3" class="node">
<title>theta</title>
<path fill="lightgrey" stroke="black" d="M130,-413.88C130,-413.88 100,-413.88 100,-413.88 94,-413.88 88,-407.88 88,-401.88 88,-401.88 88,-372.88 88,-372.88 88,-366.88 94,-360.88 100,-360.88 100,-360.88 130,-360.88 130,-360.88 136,-360.88 142,-366.88 142,-372.88 142,-372.88 142,-401.88 142,-401.88 142,-407.88 136,-413.88 130,-413.88"/>
<text text-anchor="middle" x="115" y="-398.68" font-family="Times New Roman,serif" font-size="14.00">theta</text>
<text text-anchor="middle" x="115" y="-383.68" font-family="Times New Roman,serif" font-size="14.00">~</text>
<text text-anchor="middle" x="115" y="-368.68" font-family="Times New Roman,serif" font-size="14.00">Data</text>
</g>
<!-- mu_q -->
<g id="node4" class="node">
<title>mu_q</title>
<polygon fill="none" stroke="black" points="141.5,-302.93 50.5,-302.93 50.5,-249.93 141.5,-249.93 141.5,-302.93"/>
<text text-anchor="middle" x="96" y="-287.73" font-family="Times New Roman,serif" font-size="14.00">mu_q</text>
<text text-anchor="middle" x="96" y="-272.73" font-family="Times New Roman,serif" font-size="14.00">~</text>
<text text-anchor="middle" x="96" y="-257.73" font-family="Times New Roman,serif" font-size="14.00">Deterministic</text>
</g>
<!-- theta&#45;&gt;mu_q -->
<g id="edge3" class="edge">
<title>theta&#45;&gt;mu_q</title>
<path fill="none" stroke="black" d="M110.55,-360.84C108.09,-346.73 104.99,-328.98 102.29,-313.49"/>
<polygon fill="black" stroke="black" points="105.66,-312.44 100.49,-303.19 98.76,-313.64 105.66,-312.44"/>
</g>
<!-- mu_q&#45;&gt;q_likelihood -->
<g id="edge9" class="edge">
<title>mu_q&#45;&gt;q_likelihood</title>
<path fill="none" stroke="black" d="M92.72,-249.89C91.3,-238.87 89.6,-225.63 87.97,-212.97"/>
<polygon fill="black" stroke="black" points="91.44,-212.47 86.69,-203 84.5,-213.37 91.44,-212.47"/>
</g>
<!-- phi_r -->
<g id="node5" class="node">
<title>phi_r</title>
<path fill="lightgrey" stroke="black" d="M58,-413.88C58,-413.88 28,-413.88 28,-413.88 22,-413.88 16,-407.88 16,-401.88 16,-401.88 16,-372.88 16,-372.88 16,-366.88 22,-360.88 28,-360.88 28,-360.88 58,-360.88 58,-360.88 64,-360.88 70,-366.88 70,-372.88 70,-372.88 70,-401.88 70,-401.88 70,-407.88 64,-413.88 58,-413.88"/>
<text text-anchor="middle" x="43" y="-398.68" font-family="Times New Roman,serif" font-size="14.00">phi_r</text>
<text text-anchor="middle" x="43" y="-383.68" font-family="Times New Roman,serif" font-size="14.00">~</text>
<text text-anchor="middle" x="43" y="-368.68" font-family="Times New Roman,serif" font-size="14.00">Data</text>
</g>
<!-- phi_r&#45;&gt;mu_q -->
<g id="edge2" class="edge">
<title>phi_r&#45;&gt;mu_q</title>
<path fill="none" stroke="black" d="M55.43,-360.84C62.42,-346.46 71.25,-328.3 78.89,-312.6"/>
<polygon fill="black" stroke="black" points="82.24,-313.72 83.47,-303.19 75.95,-310.65 82.24,-313.72"/>
</g>
<!-- sigma_q -->
<g id="node6" class="node">
<title>sigma_q</title>
<ellipse fill="none" stroke="black" cx="217" cy="-276.43" rx="57.97" ry="37.45"/>
<text text-anchor="middle" x="217" y="-287.73" font-family="Times New Roman,serif" font-size="14.00">sigma_q</text>
<text text-anchor="middle" x="217" y="-272.73" font-family="Times New Roman,serif" font-size="14.00">~</text>
<text text-anchor="middle" x="217" y="-257.73" font-family="Times New Roman,serif" font-size="14.00">Exponential</text>
</g>
<!-- sigma_q&#45;&gt;q_likelihood -->
<g id="edge8" class="edge">
<title>sigma_q&#45;&gt;q_likelihood</title>
<path fill="none" stroke="black" d="M181.18,-246.52C164.24,-232.85 143.87,-216.41 126,-201.99"/>
<polygon fill="black" stroke="black" points="127.97,-199.08 117.99,-195.52 123.57,-204.53 127.97,-199.08"/>
</g>
<!-- baseflux -->
<g id="node7" class="node">
<title>baseflux</title>
<ellipse fill="none" stroke="black" cx="217" cy="-387.38" rx="56.64" ry="37.45"/>
<text text-anchor="middle" x="217" y="-398.68" font-family="Times New Roman,serif" font-size="14.00">baseflux</text>
<text text-anchor="middle" x="217" y="-383.68" font-family="Times New Roman,serif" font-size="14.00">~</text>
<text text-anchor="middle" x="217" y="-368.68" font-family="Times New Roman,serif" font-size="14.00">Halfnormal</text>
</g>
<!-- baseflux&#45;&gt;mu_q -->
<g id="edge4" class="edge">
<title>baseflux&#45;&gt;mu_q</title>
<path fill="none" stroke="black" d="M183.94,-356.61C167.94,-342.21 148.7,-324.88 132.3,-310.12"/>
<polygon fill="black" stroke="black" points="134.28,-307.19 124.5,-303.1 129.59,-312.39 134.28,-307.19"/>
</g>
<!-- w_inter -->
<g id="node8" class="node">
<title>w_inter</title>
<ellipse fill="none" stroke="black" cx="333" cy="-387.38" rx="41.94" ry="37.45"/>
<text text-anchor="middle" x="333" y="-398.68" font-family="Times New Roman,serif" font-size="14.00">w_inter</text>
<text text-anchor="middle" x="333" y="-383.68" font-family="Times New Roman,serif" font-size="14.00">~</text>
<text text-anchor="middle" x="333" y="-368.68" font-family="Times New Roman,serif" font-size="14.00">Normal</text>
</g>
<!-- w_inter&#45;&gt;mu_q -->
<g id="edge6" class="edge">
<title>w_inter&#45;&gt;mu_q</title>
<path fill="none" stroke="black" d="M302.64,-361.56C296.4,-357.24 289.68,-353.11 283,-349.91 227.79,-323.42 205.68,-339.39 150,-313.91 146.34,-312.23 142.66,-310.32 139.03,-308.27"/>
<polygon fill="black" stroke="black" points="140.53,-305.09 130.16,-302.94 136.93,-311.09 140.53,-305.09"/>
</g>
<!-- w_phi -->
<g id="node9" class="node">
<title>w_phi</title>
<ellipse fill="none" stroke="black" cx="434" cy="-387.38" rx="41.94" ry="37.45"/>
<text text-anchor="middle" x="434" y="-398.68" font-family="Times New Roman,serif" font-size="14.00">w_phi</text>
<text text-anchor="middle" x="434" y="-383.68" font-family="Times New Roman,serif" font-size="14.00">~</text>
<text text-anchor="middle" x="434" y="-368.68" font-family="Times New Roman,serif" font-size="14.00">Normal</text>
</g>
<!-- w_phi&#45;&gt;mu_q -->
<g id="edge5" class="edge">
<title>w_phi&#45;&gt;mu_q</title>
<path fill="none" stroke="black" d="M404.18,-361.14C397.84,-356.8 390.95,-352.78 384,-349.91 286.74,-309.76 247.97,-352.29 150,-313.91 145.86,-312.28 141.72,-310.3 137.67,-308.1"/>
<polygon fill="black" stroke="black" points="139.4,-305.06 129,-303.01 135.85,-311.1 139.4,-305.06"/>
</g>
<!-- w_theta -->
<g id="node10" class="node">
<title>w_theta</title>
<ellipse fill="none" stroke="black" cx="535" cy="-387.38" rx="41.94" ry="37.45"/>
<text text-anchor="middle" x="535" y="-398.68" font-family="Times New Roman,serif" font-size="14.00">w_theta</text>
<text text-anchor="middle" x="535" y="-383.68" font-family="Times New Roman,serif" font-size="14.00">~</text>
<text text-anchor="middle" x="535" y="-368.68" font-family="Times New Roman,serif" font-size="14.00">Normal</text>
</g>
<!-- w_theta&#45;&gt;mu_q -->
<g id="edge7" class="edge">
<title>w_theta&#45;&gt;mu_q</title>
<path fill="none" stroke="black" d="M505.28,-360.89C498.93,-356.57 492.02,-352.62 485,-349.91 345.32,-295.94 290.64,-365.33 150,-313.91 145.76,-312.36 141.53,-310.4 137.41,-308.21"/>
<polygon fill="black" stroke="black" points="139.01,-305.09 128.61,-303.09 135.5,-311.15 139.01,-305.09"/>
</g>
</g>
</svg>
